<mxfile host="app.diagrams.net" modified="2023-08-01T05:14:36.862Z" agent="Mozilla/5.0 (Windows NT 10.0; Win64; x64) AppleWebKit/537.36 (KHTML, like Gecko) Chrome/115.0.0.0 Safari/537.36" version="21.6.6" etag="1c479r9oF_PohV1F7Ebw" type="github">
  <diagram name="페이지-1" id="oBdM9JekEJhr_EVPIfPo">
    <mxGraphModel>
      <root>
        <mxCell id="0" />
        <mxCell id="1" parent="0" />
      </root>
    </mxGraphModel>
  </diagram>
</mxfile>
